<svg xmlns="http://www.w3.org/2000/svg" width="50" height="59" viewBox="0 0 50 59"><path d="M174,52.2a4.649,4.649,0,0,1,3.536,1.728,6.676,6.676,0,0,1,0,8.344A4.649,4.649,0,0,1,174,64c-2.775,0-5-2.655-5-5.9C169,54.826,171.225,52.2,174,52.2ZM134,5h8.175l2.35,5.9H181.5a2.325,2.325,0,0,1,1.768.864A3.238,3.238,0,0,1,184,13.85a4.291,4.291,0,0,1-.3,1.475l-8.95,19.086a4.969,4.969,0,0,1-4.375,3.039H151.75l-2.25,4.808-.075.354a.811.811,0,0,0,.183.521.58.58,0,0,0,.442.216H179v5.9H149c-2.775,0-5-2.655-5-5.9a6.889,6.889,0,0,1,.6-2.832l3.4-7.228L139,10.9h-5Zm15,47.2a4.649,4.649,0,0,1,3.536,1.728,6.676,6.676,0,0,1,0,8.344A4.649,4.649,0,0,1,149,64c-2.775,0-5-2.655-5-5.9C144,54.826,146.225,52.2,149,52.2Zm22.5-20.65,6.95-14.75h-31.6l5.9,14.75Z" transform="translate(-134 -5)"/></svg>